<?xml version="1.0" encoding="UTF-8"?>
<svg width="200" height="200" viewBox="0 0 200 200" xmlns="http://www.w3.org/2000/svg" fill="none">
    <!-- Ícone de localização com recorte para a lupa -->
    <path d="M100 20C77 20 60 37 60 60C60 85 100 140 100 140C100 140 140 85 140 60C140 37 123 20 100 20ZM110 85C97 85 87 75 87 62C87 49 97 39 110 39C123 39 133 49 133 62C133 75 123 85 110 85Z" 
          fill="#0057B8"/>
    
    <!-- Ícone de lupa -->
    <g transform="translate(110,62)">
        <circle r="14" stroke="#D72638" stroke-width="6.5" fill="none"/>
        <path d="M12 12L24 24" stroke="#D72638" stroke-width="6.5" stroke-linecap="round"/>
    </g>
    
    <!-- Texto do logo -->
    <text x="50%" y="170" font-family="Arial, sans-serif" font-size="24" font-weight="bold" text-anchor="middle">
        <tspan fill="#0057B8">Compara</tspan>
        <tspan fill="#D72638">Farma</tspan>
    </text>
</svg>